PathFileType	4	(X/Y/Z)	/Users/itak/Documents/Research/Walk-IL/dataset/trc/00578_00009.trc
DataRate	CameraRate	NumFrames	NumMarkers	Units	OrigDataRate	OrigDataStartFrame	OrigNumFrames
100.000000	100.000000	4	53	mm	100.000000	452	517
Frame#	Time	RPSI			LPSI			L3			STRN			T10			C7			CLAV			RBAK			LBAK			LSHO			LUPA			LAEL			LAOL			LWTS			LWPS			LFRA			LIFD			LHPS			LHTS			RSHO			RUPA			RAEL			RAOL			RWTS			RWPS			RFRA			RIFD			RHTS			RHPS			RBHD			LFHD			RFHD			LBHD			LHIP			RHIP			RASI			LASI			LKNE			LTHI			LANK			LTIP			LTOE			LMT1			LMT5			LHEE			RKNE			RTHI			RANK			RTIP			RTOE			RMT1			RMT5			RHEE			
		X1	Y1	Z1	X2	Y2	Z2	X3	Y3	Z3	X4	Y4	Z4	X5	Y5	Z5	X6	Y6	Z6	X7	Y7	Z7	X8	Y8	Z8	X9	Y9	Z9	X10	Y10	Z10	X11	Y11	Z11	X12	Y12	Z12	X13	Y13	Z13	X14	Y14	Z14	X15	Y15	Z15	X16	Y16	Z16	X17	Y17	Z17	X18	Y18	Z18	X19	Y19	Z19	X20	Y20	Z20	X21	Y21	Z21	X22	Y22	Z22	X23	Y23	Z23	X24	Y24	Z24	X25	Y25	Z25	X26	Y26	Z26	X27	Y27	Z27	X28	Y28	Z28	X29	Y29	Z29	X30	Y30	Z30	X31	Y31	Z31	X32	Y32	Z32	X33	Y33	Z33	X34	Y34	Z34	X35	Y35	Z35	X36	Y36	Z36	X37	Y37	Z37	X38	Y38	Z38	X39	Y39	Z39	X40	Y40	Z40	X41	Y41	Z41	X42	Y42	Z42	X43	Y43	Z43	X44	Y44	Z44	X45	Y45	Z45	X46	Y46	Z46	X47	Y47	Z47	X48	Y48	Z48	X49	Y49	Z49	X50	Y50	Z50	X51	Y51	Z51	X52	Y52	Z52	X53	Y53	Z53	

453	4.52	762.9153442382812	1012.719116210938	-208.9033355712891	645.9449462890625	1017.536193847656	-273.4018249511719	704.2147827148438	1101.372436523438	-245.4852905273438	804.651123046875	1303.508544921875	-438.4501953125	698.3068237304688	1226.0810546875	-227.89794921875	728.739501953125	1502.663818359375	-242.0042419433594	795.0707397460938	1413.653686523438	-411.4956359863281	774.7313232421875	1369.507202148438	-152.6460571289062	632.1405639648438	1448.8642578125	-255.5782165527344	596.6549072265625	1480.682006835938	-376.6598510742188	522.7844848632812	1353.447265625	-407.9257507324219	511.5893859863281	1135.723388671875	-450.3266906738281	536.4614868164062	1117.139892578125	-352.5104064941406	593.2442016601562	909.1048583984375	-553.9826049804688	513.6340942382812	879.3020629882812	-535.7671508789062	515.1834716796875	1052.931030273438	-483.3387451171875	604.1407470703125	741.8753051757812	-563.85546875	527.8615112304688	820.1577758789062	-546.2846069335938	583.1893310546875	833.7124633789062	-584.2785034179688	894.0795288085938	1463.248046875	-229.9428100585938	946.165283203125	1394.616577148438	-188.3953704833984	984.403564453125	1103.917236328125	-185.0974426269531	935.5283813476562	1086.122436523438	-148.5758056640625	1010.127197265625	887.8377685546875	-329.8772888183594	1047.3564453125	865.293701171875	-260.2798461914062	995.7572021484375	1049.187622070312	-193.2831115722656	1012.030822753906	715.6559448242188	-340.5985107421875	1035.3369140625	796.8992309570312	-350.6922912597656	1052.688232421875	791.6510620117188	-278.6923828125	820.3862915039062	1685.79736328125	-270.4145812988281	761.8701782226562	1725.748046875	-465.6186828613281	885.2161254882812	1718.6162109375	-391.0543518066406	682.2884521484375	1693.072387695312	-362.7617797851562	591.1444091796875	941.427734375	-449.8000183105469	926.889404296875	938.6836547851562	-261.9171752929688	919.5817260742188	974.3052978515625	-365.4413452148438	674.09375	967.533935546875	-493.0606384277344	659.516845703125	496.1442565917969	-445.3786010742188	626.9840698242188	661.7189331054688	-462.0300598144531	608.3292846679688	38.71507263183594	-332.095947265625	617.6461791992188	254.0442352294922	-372.9080505371094	752.7633056640625	40.18186569213867	-495.5727233886719	753.8014526367188	40.31571960449219	-413.9951782226562	650.1171875	39.41604995727539	-447.31884765625	626.978759765625	37.52029418945312	-245.0375518798828	881.3069458007812	497.4868469238281	-310.3918151855469	938.7042236328125	785.9678955078125	-302.3377685546875	804.1925659179688	42.31425857543945	-216.5819549560547	860.5856323242188	354.5027465820312	-310.5034790039062	856.2749633789062	40.96999740600586	-436.4695129394531	792.8308715820312	42.10718154907227	-394.04150390625	875.957763671875	41.47825622558594	-329.0850219726562	730.9619140625	35.01922607421875	-190.4793701171875	
454	4.53	762.5780639648438	1012.708435058594	-209.3500366210938	645.6902465820312	1017.622863769531	-274.0408935546875	704.0186157226562	1101.358642578125	-246.0504913330078	804.6979370117188	1303.39208984375	-438.9771423339844	698.1134643554688	1226.044677734375	-228.5130767822266	728.5349731445312	1502.615234375	-242.7004089355469	795.0944213867188	1413.557495117188	-412.1070556640625	774.4102783203125	1369.488403320312	-153.2917785644531	631.9842529296875	1448.783813476562	-256.4053955078125	596.5905151367188	1480.5654296875	-377.5104064941406	522.7308349609375	1353.373901367188	-408.800048828125	511.3928833007812	1135.606201171875	-451.1150817871094	536.1396484375	1117.036010742188	-353.2092590332031	592.7083740234375	908.591552734375	-554.2930297851562	513.006103515625	879.0078735351562	-536.0643920898438	514.7752685546875	1052.729125976562	-483.9261169433594	603.1890869140625	741.2859497070312	-563.6770629882812	527.0040283203125	819.7855224609375	-546.3480224609375	582.4094848632812	833.092529296875	-584.3245849609375	893.8788452148438	1463.25390625	-230.4582061767578	945.8763427734375	1394.604736328125	-188.7932586669922	984.0916748046875	1103.854248046875	-185.6202545166016	935.2330322265625	1086.055053710938	-149.0956115722656	1009.793762207031	888.04541015625	-330.8196716308594	1046.9677734375	865.3146362304688	-261.2257385253906	995.4180908203125	1049.11328125	-193.8669586181641	1011.577453613281	715.865478515625	-341.8315734863281	1034.924682617188	797.13037109375	-351.7729797363281	1052.26611328125	791.719970703125	-279.7630615234375	820.1498413085938	1685.745483398438	-271.0946960449219	761.712890625	1725.63134765625	-466.3470458984375	885.0299072265625	1718.621948242188	-391.7079467773438	682.0989990234375	1692.965454101562	-363.4978942871094	591.1942138671875	941.3543701171875	-450.400634765625	926.653076171875	938.636962890625	-262.05126953125	919.5703735351562	974.1849975585938	-365.6314392089844	674.3025512695312	967.3839721679688	-493.6170043945312	659.5079345703125	496.0443420410156	-445.4967346191406	626.9447631835938	661.6068725585938	-462.3400573730469	608.3326416015625	38.70927810668945	-332.0963745117188	617.6104125976562	254.057373046875	-373.0511169433594	752.7672729492188	40.19172668457031	-495.53857421875	753.8270874023438	40.30926513671875	-413.9864196777344	650.1279296875	39.417724609375	-447.2979431152344	626.9910888671875	37.50216293334961	-245.0332641601562	881.1822509765625	497.4505310058594	-310.3721923828125	938.4963989257812	785.966064453125	-302.4576110839844	804.1142578125	42.29531478881836	-216.5691680908203	860.4861450195312	354.4321594238281	-310.5154113769531	856.2694091796875	41.00407409667969	-436.4369506835938	792.7947998046875	42.07700729370117	-394.035888671875	875.9304809570312	41.49312591552734	-329.0876159667969	730.9281005859375	34.87599945068359	-190.4507598876953	
455	4.54	762.2486572265625	1012.695129394531	-209.7655029296875	645.434814453125	1017.721740722656	-274.6543884277344	703.81103515625	1101.337036132812	-246.5528564453125	804.7290649414062	1303.278564453125	-439.4815063476562	697.9140625	1226.009033203125	-229.1339721679688	728.343505859375	1502.576049804688	-243.375244140625	795.1033325195312	1413.463623046875	-412.6932983398438	774.095703125	1369.474853515625	-153.9220733642578	631.8467407226562	1448.72998046875	-257.2123107910156	596.53369140625	1480.449951171875	-378.3411560058594	522.6871948242188	1353.290283203125	-409.6495666503906	511.2082824707031	1135.476806640625	-451.8525390625	535.88623046875	1116.932373046875	-353.8869323730469	592.2291870117188	908.09228515625	-554.5890502929688	512.4445190429688	878.706787109375	-536.3363647460938	514.3876953125	1052.513549804688	-484.4672546386719	602.3245239257812	740.7220458984375	-563.5242309570312	526.2418823242188	819.41845703125	-546.4259033203125	581.6915283203125	832.497802734375	-584.365966796875	893.6878051757812	1463.259155273438	-230.9635314941406	945.6007690429688	1394.594604492188	-189.1908416748047	983.8207397460938	1103.80078125	-186.1700592041016	934.9637451171875	1085.994506835938	-149.610595703125	1009.484436035156	888.2711181640625	-331.7750854492188	1046.60791015625	865.3507690429688	-262.1897277832031	995.1018676757812	1049.048950195312	-194.45166015625	1011.160949707031	716.0968017578125	-343.0961608886719	1034.564208984375	797.38916015625	-352.8989868164062	1051.867065429688	791.8011474609375	-280.8446960449219	819.9175415039062	1685.694213867188	-271.7579956054688	761.5733032226562	1725.517944335938	-467.062255859375	884.8490600585938	1718.626708984375	-392.3331298828125	681.914794921875	1692.870483398438	-364.216552734375	591.2339477539062	941.2763061523438	-450.9667358398438	926.4218139648438	938.59375	-262.1765747070312	919.5382690429688	974.0731201171875	-365.8138427734375	674.4850463867188	967.2369384765625	-494.1475219726562	659.5223999023438	495.9431457519531	-445.6400451660156	626.9103393554688	661.48779296875	-462.6429748535156	608.3370971679688	38.70468902587891	-332.0961303710938	617.5952758789062	254.0426635742188	-373.2110900878906	752.780517578125	40.20827865600586	-495.5162048339844	753.8580932617188	40.30585861206055	-413.9791870117188	650.1369018554688	39.41783142089844	-447.2769165039062	626.9981079101562	37.48841857910156	-245.0219421386719	881.060302734375	497.4254455566406	-310.3699645996094	938.2872924804688	785.927978515625	-302.5444946289062	804.0471801757812	42.27476119995117	-216.5570678710938	860.3965454101562	354.364990234375	-310.52685546875	856.2723999023438	41.04524612426758	-436.4006958007812	792.763671875	42.05169677734375	-394.0300903320312	875.9054565429688	41.50629806518555	-329.0909423828125	730.9055786132812	34.74890899658203	-190.4308013916016	
456	4.55	761.9352416992188	1012.681396484375	-210.1491546630859	645.18603515625	1017.822326660156	-275.2367553710938	703.5989990234375	1101.305053710938	-247.0016479492188	804.7407836914062	1303.1708984375	-439.9645385742188	697.7094116210938	1225.976440429688	-229.7600860595703	728.1622314453125	1502.54833984375	-244.0288696289062	795.0950927734375	1413.3740234375	-413.2551879882812	773.7957153320312	1369.470703125	-154.5313873291016	631.72900390625	1448.709716796875	-257.9937438964844	596.4854736328125	1480.341552734375	-379.1496887207031	522.6497802734375	1353.199829101562	-410.4693298339844	511.0351257324219	1135.336669921875	-452.5380554199219	535.7080078125	1116.839721679688	-354.5497131347656	591.810791015625	907.6114501953125	-554.8721923828125	511.9451599121094	878.4041137695312	-536.5810546875	514.0403442382812	1052.292358398438	-484.9732360839844	601.5587768554688	740.1973266601562	-563.4039916992188	525.5827026367188	819.0618896484375	-546.5217895507812	581.0390014648438	831.9219970703125	-584.4016723632812	893.5037841796875	1463.262329101562	-231.4560699462891	945.3402709960938	1394.587280273438	-189.5910491943359	983.5852661132812	1103.760131835938	-186.7422943115234	934.7208251953125	1085.943603515625	-150.12451171875	1009.19189453125	888.5105590820312	-332.7300109863281	1046.2763671875	865.4030151367188	-263.1629943847656	994.8085327148438	1048.99951171875	-195.0389709472656	1010.783447265625	716.3482055664062	-344.3812255859375	1034.244262695312	797.6683349609375	-354.0472717285156	1051.489868164062	791.8946533203125	-281.9275512695312	819.6956176757812	1685.651123046875	-272.4048767089844	761.4559936523438	1725.4111328125	-467.7679748535156	884.6795043945312	1718.633056640625	-392.93896484375	681.7403564453125	1692.787475585938	-364.9230041503906	591.2758178710938	941.194580078125	-451.5111694335938	926.2061157226562	938.55908203125	-262.3076171875	919.4887084960938	973.974853515625	-365.994384765625	674.6279907226562	967.0965576171875	-494.6505737304688	659.5577392578125	495.8446960449219	-445.8066711425781	626.8917846679688	661.3690185546875	-462.9423828125	608.3423461914062	38.70260238647461	-332.0948486328125	617.6008911132812	253.9840545654297	-373.376220703125	752.8018798828125	40.23049545288086	-495.5047302246094	753.8896484375	40.30497360229492	-413.9742126464844	650.1474609375	39.41772842407227	-447.2581787109375	627.0046997070312	37.48281860351562	-245.0046844482422	880.940185546875	497.410888671875	-310.3874206542969	938.0853271484375	785.8474731445312	-302.5890197753906	803.9927978515625	42.25386428833008	-216.5441741943359	860.31005859375	354.3023376464844	-310.5314331054688	856.2830200195312	41.09540176391602	-436.3603820800781	792.73828125	42.03280258178711	-394.0249328613281	875.8837890625	41.51772689819336	-329.0941467285156	730.8931884765625	34.63851547241211	-190.4142761230469	
